<svg width="433" height="116" viewBox="0 0 433 116" fill="none" xmlns="http://www.w3.org/2000/svg">
<path d="M284.263 51.94C288.463 51.94 291.247 54.79 291.247 58.94C291.247 63.09 288.463 65.94 284.263 65.94C280.062 65.94 277.329 62.94 277.329 58.94C277.329 54.89 280.012 51.94 284.263 51.94Z" fill="#F72717"/>
<path d="M309.836 55.74C310.494 52.89 312.62 50.74 316.011 50.74C319.148 50.74 321.375 52.59 321.78 55.74H309.836Z" fill="#F72717"/>
<path fill-rule="evenodd" clip-rule="evenodd" d="M358.024 72.3507V57.8174C358.024 26.1029 332.515 0.393188 301.049 0.393188C276.965 0.393188 256.372 15.4537 248.034 36.74H268.893L267.83 43.54H251.787V51.09H266.312L265.198 57.64H251.787V61.49C251.787 63.74 252.799 65.24 255.279 65.24H268.741L267.627 72.04H252.85C249.59 72.04 246.797 70.8952 245.107 68.7625C250.177 95.2421 273.296 115.242 301.049 115.242C333.005 115.453 350.921 95.909 358.024 72.3507ZM299.091 57.39V36.74H291.348V48.34C289.931 46.84 287.046 45.34 283.2 45.34C274.849 45.34 269.181 50.79 269.181 58.94C269.181 66.74 275.153 72.54 283.908 72.54C293.372 72.54 299.091 66.94 299.091 57.39ZM324.311 71.29L324.817 65.39C322.894 66.29 320.869 66.79 318.592 66.79C314.999 66.79 310.798 65.14 310.09 60.84H330.131C330.282 51.44 325.475 45.34 315.758 45.34C307.104 45.34 301.486 51.04 301.486 58.64C301.486 67.39 307.812 72.54 316.719 72.54C319.402 72.54 322.084 72.19 324.311 71.29ZM349.986 58.14V72.04H357.729V56.24C357.729 48.69 352.162 45.34 344.824 45.34C337.435 45.34 331.868 48.69 331.868 56.24V72.04H339.611V58.14C339.611 54.39 341.028 51.99 344.824 51.99C348.569 51.99 349.986 54.39 349.986 58.14Z" fill="#F72717"/>
<path d="M374.774 45.89L373.374 52.59C372.824 52.34 371.474 51.99 370.324 51.99C366.674 51.99 365.674 54.39 365.674 58.14V72.04H358.024V56.34C358.024 48.34 363.224 45.34 370.174 45.34C371.774 45.34 373.974 45.79 374.774 45.89Z" fill="#F72717"/>
<path d="M396.486 65.39L395.986 71.29C393.786 72.19 391.136 72.54 388.486 72.54C379.686 72.54 373.436 67.39 373.436 58.64C373.436 51.04 378.986 45.34 387.536 45.34C397.136 45.34 401.886 51.44 401.736 60.84H381.936C382.636 65.14 386.786 66.79 390.336 66.79C392.586 66.79 394.586 66.29 396.486 65.39ZM387.786 50.74C384.436 50.74 382.336 52.89 381.686 55.74H393.486C393.086 52.59 390.886 50.74 387.786 50.74Z" fill="#F72717"/>
<path d="M432.052 36.74V57.39C432.052 66.94 426.402 72.54 417.052 72.54C408.402 72.54 402.502 66.74 402.502 58.94C402.502 50.79 408.102 45.34 416.352 45.34C420.152 45.34 423.002 46.84 424.402 48.34V36.74H432.052ZM424.302 58.94C424.302 54.79 421.552 51.94 417.402 51.94C413.202 51.94 410.552 54.89 410.552 58.94C410.552 62.94 413.252 65.94 417.402 65.94C421.552 65.94 424.302 63.09 424.302 58.94Z" fill="#F72717"/>
<path d="M0.896484 54.34C0.946484 43.24 8.94649 36.14 19.5965 36.14C23.4465 36.14 27.1465 36.99 30.3965 38.64L27.2465 45.14C25.5965 44.24 23.3965 43.54 20.7965 43.54C14.4465 43.54 10.0965 47.84 10.0965 54.34C10.0965 61.29 15.2465 65.39 21.6965 65.39C24.8965 65.39 26.9465 64.64 28.8965 63.74L27.9965 71.04C25.7965 71.89 22.9465 72.64 19.6465 72.64C8.74649 72.64 0.896484 65.39 0.896484 54.34Z" fill="#071A57"/>
<path d="M52.8512 65.39L52.3512 71.29C50.1512 72.19 47.5012 72.54 44.8512 72.54C36.0512 72.54 29.8012 67.39 29.8012 58.64C29.8012 51.04 35.3512 45.34 43.9012 45.34C53.5012 45.34 58.2512 51.44 58.1012 60.84H38.3012C39.0012 65.14 43.1512 66.79 46.7012 66.79C48.9512 66.79 50.9512 66.29 52.8512 65.39ZM44.1512 50.74C40.8012 50.74 38.7012 52.89 38.0512 55.74H49.8512C49.4512 52.59 47.2512 50.74 44.1512 50.74Z" fill="#071A57"/>
<path d="M58.1176 70.59L60.2676 64.59C62.6676 65.99 65.3176 66.89 68.0676 66.89C69.7176 66.89 71.2676 66.34 71.2676 64.69C71.2676 62.99 69.0676 62.29 66.5176 61.14L65.2676 60.54C61.8676 59.04 58.4176 57.24 58.4176 52.89C58.4176 47.44 63.2176 45.34 68.8676 45.34C72.1676 45.34 75.6176 45.99 78.8676 47.39L76.5676 53.29C74.3676 51.74 71.6176 50.94 69.4676 50.94C67.8176 50.94 66.3676 51.34 66.3676 52.79C66.3676 54.09 68.5676 54.79 70.9176 55.84L72.1676 56.44C75.7676 58.04 79.3176 60.09 79.3176 64.64C79.3176 70.34 74.0176 72.54 68.2176 72.54C65.0176 72.54 61.3176 72.04 58.1176 70.59Z" fill="#071A57"/>
<path d="M79.4156 57.89V40.09L87.1156 36.94V45.69H92.4156L91.4156 51.49H87.1156V58.19C87.1156 64.39 89.6156 68.64 92.0656 72.04H83.7656C82.4656 69.69 79.3656 65.44 79.4156 57.89Z" fill="#071A57"/>
<path d="M121.046 59.69V72.04H113.546V68.79C111.346 71.19 108.046 72.44 104.546 72.44C96.8465 72.44 90.9965 67.29 90.9965 59.14C90.9965 51.14 96.9465 45.34 105.996 45.34C115.396 45.34 121.046 51.04 121.046 59.69ZM112.796 58.94C112.796 54.79 110.046 51.94 105.896 51.94C101.746 51.94 99.0465 54.99 99.0465 58.94C99.0465 63.04 101.696 65.94 105.896 65.94C110.046 65.94 112.796 63.09 112.796 58.94Z" fill="#071A57"/>
<path d="M122.793 57.89V40.09L130.493 36.94V45.69H135.793L134.793 51.49H130.493V58.19C130.493 64.39 132.993 68.64 135.443 72.04H127.143C125.843 69.69 122.743 65.44 122.793 57.89Z" fill="#071A57"/>
<path d="M136.965 45.69H144.765V72.04H136.965V45.69ZM136.965 36.74H144.765V42.49H136.965V36.74Z" fill="#071A57"/>
<path d="M166.708 65.04L166.058 71.39C164.408 72.19 162.158 72.59 160.258 72.59C152.008 72.59 146.258 67.24 146.258 58.89C146.258 50.64 151.908 45.34 160.158 45.34C163.258 45.34 165.608 45.94 167.958 47.04L165.808 52.94C164.658 52.24 163.058 51.69 161.358 51.69C157.108 51.69 154.408 54.44 154.408 58.89C154.408 63.29 157.308 66.24 161.858 66.19C163.858 66.19 165.508 65.64 166.708 65.04Z" fill="#071A57"/>
<path d="M168.952 36.74H176.602V56.19H177.452L184.852 45.69H193.352L184.652 56.64H185.152C188.552 56.64 189.502 58.54 190.402 61.34L191.802 66.19C192.352 67.99 193.352 70.54 194.202 72.04H185.902C185.502 71.09 184.902 69.54 184.402 67.99L183.302 64.14C182.652 62.09 181.852 61.24 179.902 61.24H176.602V72.04H168.952V36.74Z" fill="#071A57"/>
<path d="M215.601 65.39L215.101 71.29C212.901 72.19 210.251 72.54 207.601 72.54C198.801 72.54 192.551 67.39 192.551 58.64C192.551 51.04 198.101 45.34 206.651 45.34C216.251 45.34 221.001 51.44 220.851 60.84H201.051C201.751 65.14 205.901 66.79 209.451 66.79C211.701 66.79 213.701 66.29 215.601 65.39ZM206.901 50.74C203.551 50.74 201.451 52.89 200.801 55.74H212.601C212.201 52.59 210.001 50.74 206.901 50.74Z" fill="#071A57"/>
<path d="M220.918 57.89V40.09L228.618 36.94V45.69H233.918L232.918 51.49H228.618V58.19C228.618 64.39 231.118 68.64 233.568 72.04H225.268C223.968 69.69 220.868 65.44 220.918 57.89Z" fill="#071A57"/>
</svg>
